<svg xmlns="http://www.w3.org/2000/svg" width="98" height="100" viewBox="0 0 98 100" fill="none">
    <path
        d="M83.8921 12.35C84.6514 13.0533 85.2827 14.5712 84.9319 17.5921C84.5893 20.5429 83.3554 24.3658 81.2079 28.8447C76.9276 37.7714 69.2946 48.7358 59.2833 59.5437C49.2719 70.3517 38.9229 78.8001 30.3492 83.75C26.0475 86.2335 22.3301 87.7559 19.4141 88.323C16.4289 88.9036 14.8672 88.3901 14.1079 87.6868C13.3486 86.9834 12.7173 85.4655 13.0681 82.4447C13.4107 79.4939 14.6446 75.671 16.7921 71.1921C21.0724 62.2653 28.7054 51.301 38.7167 40.493C48.7281 29.6851 59.0771 21.2366 67.6508 16.2868C71.9525 13.8033 75.6699 12.2809 78.5859 11.7137C81.5711 11.1331 83.1328 11.6466 83.8921 12.35Z"
        stroke="#2EBB77" stroke-width="5.41279" />
    <path
        d="M18.3554 26.4369C18.3554 26.4369 28.6035 27.3918 33.2406 23.7305C37.2296 20.5809 39.33 12.2283 39.33 12.2283H73.8365V33.2029H63.0109L71.1301 43.3519L55.4811 61.2471L37.9768 76.5052C37.9768 76.5052 35.4932 68.2424 32.564 63.6498C30.944 61.1098 27.8278 57.5604 27.8278 57.5604L21.7384 66.3562C21.7384 66.3562 18.2813 62.8244 13.6192 60.2668C10.401 58.5013 1.44048 55.5306 1.44048 55.5306L18.3554 26.4369Z"
        fill="#2EBB77" />
    <path
        d="M40.6832 84.6244C40.6832 84.6244 53.0855 76.6423 60.3045 69.7392C67.0779 63.2623 75.8663 51.471 75.8663 51.471L85.3387 60.9434C85.3387 60.9434 76.7031 73.0553 69.1003 78.535C59.8136 85.2285 41.3598 88.0074 41.3598 88.0074L40.6832 84.6244Z"
        fill="#2EBB77" />
</svg>