<svg xmlns="http://www.w3.org/2000/svg" width="108" height="111" viewBox="0 0 108 111" fill="none">
    <rect width="108" height="111" rx="5" fill="#f8f8f8" />
    <path
        d="M71 73.5H43C40.8 73.5 39 71.7 39 69.5V49.5C39 47.3 40.8 45.5 43 45.5H71C73.2 45.5 75 47.3 75 49.5V69.5C75 71.7 73.2 73.5 71 73.5Z"
        fill="#D3D3D3" />
    <path
        d="M65 67.5H37C34.8 67.5 33 65.7 33 63.5V43.5C33 41.3 34.8 39.5 37 39.5H65C67.2 39.5 69 41.3 69 43.5V63.5C69 65.7 67.2 67.5 65 67.5Z"
        fill="#B5B5B5" />
    <path
        d="M60 50.5C61.6569 50.5 63 49.1569 63 47.5C63 45.8431 61.6569 44.5 60 44.5C58.3431 44.5 57 45.8431 57 47.5C57 49.1569 58.3431 50.5 60 50.5Z"
        fill="white" />
    <path d="M47 49.3999L38 62.4999H56L47 49.3999Z" fill="white" />
    <path d="M58 55L52 62.5H64L58 55Z" fill="#474747" />
</svg>