<svg xmlns="http://www.w3.org/2000/svg" width="276" height="23" viewBox="0 0 276 23" fill="none">
    <g clip-path="url(#clip0_17_15)">
    <path fill-rule="evenodd" clip-rule="evenodd" d="M147.169 2.02387C148.591 2.79569 150.196 4.33625 149.675 6.68055C148.738 10.8995 144.584 12.7165 140.858 13.6268C140.181 13.7923 139.493 13.934 138.807 14.0569C141.268 15.5529 144.082 16.6247 145.743 17.1438C154.816 19.9791 164.537 19.9561 174.258 19.9332C175.129 19.9311 176 19.9291 176.87 19.9291C192.441 19.9291 207.833 19.1007 223.263 17.0882C225.11 16.8472 226.988 16.6105 228.89 16.3708C243.962 14.4713 260.462 12.3919 273.856 6.65131C274.618 6.32498 275.5 6.67771 275.826 7.43915C276.152 8.2006 275.8 9.08242 275.038 9.40875C261.225 15.3288 244.269 17.4613 229.26 19.3489C227.356 19.5885 225.482 19.8241 223.651 20.063C208.071 22.0951 192.547 22.9291 176.87 22.9291C175.986 22.9291 175.097 22.9315 174.203 22.9339C164.568 22.9601 154.386 22.9878 144.848 20.0073C142.817 19.3727 139.114 17.9566 136.107 15.8815C135.555 15.5011 135.015 15.0898 134.505 14.6473C134.031 14.6985 133.581 14.7447 133.154 14.7885C132.131 14.8934 131.247 14.9842 130.508 15.096C105.448 18.8931 79.2673 16.9356 54.3553 14.8597C51.7926 14.6461 49.2166 14.4435 46.6316 14.2401C31.6561 13.0622 16.3796 11.8605 1.65464 8.37307C0.848514 8.18214 0.349795 7.37387 0.540719 6.56775C0.731644 5.76162 1.53991 5.2629 2.34604 5.45383C16.8261 8.8833 31.8405 10.0656 46.8254 11.2456C49.4203 11.4499 52.0143 11.6542 54.6045 11.87C79.5563 13.9493 105.397 15.8665 130.059 12.1299C130.655 12.0396 131.365 11.959 132.134 11.8779C131.266 10.3787 130.89 8.62876 131.451 6.73544C131.789 5.59558 132.667 4.72804 133.537 4.0965C134.439 3.44095 135.536 2.89294 136.626 2.45252C138.785 1.58103 141.204 1.01955 142.615 0.948973C143.92 0.883721 145.726 1.24036 147.169 2.02387ZM135.57 11.5053C137.091 11.3179 138.663 11.075 140.146 10.7125C143.82 9.81483 146.227 8.36676 146.747 6.02976C146.83 5.65356 146.71 5.18836 145.738 4.66041C144.787 4.14415 143.53 3.90701 142.765 3.94523C141.778 3.99459 139.694 4.44911 137.75 5.23425C136.789 5.62216 135.935 6.06263 135.3 6.52378C134.632 7.00895 134.387 7.38634 134.327 7.58771C134.029 8.59333 134.211 9.53713 134.807 10.5025C135.015 10.8397 135.271 11.1745 135.57 11.5053Z" fill="#2EBB77"/>
    </g>
    <defs>
    <clipPath id="clip0_17_15">
    <rect width="276" height="23" fill="white"/>
    </clipPath>
    </defs>
    </svg>